<svg xmlns="http://www.w3.org/2000/svg" id="Layer_1" xmlns:xlink="http://www.w3.org/1999/xlink" viewBox="0 0 1024 1280">
  <style>
    .st0{fill:#DCF6F6;stroke:#3D4747;stroke-miterlimit:10;} .st1{fill:none;} .st2{fill:none;stroke:#293030;stroke-miterlimit:10;} .st3{fill:#293030;} .st4{font-family:&apos;MyriadPro-Regular&apos;;} .st5{font-size:21px;} .st6{fill:none;stroke:#3D4747;stroke-miterlimit:10;} .st7{fill:#3D4747;} .st8{fill:#FFDEB2;stroke:#3D4747;stroke-miterlimit:10;} .st9{fill:#F8FFE0;stroke:#3D4747;stroke-width:3;stroke-miterlimit:10;} .st10{fill:#E5DEFF;stroke:#3D4747;stroke-miterlimit:10;} .st11{fill:#D6EAFC;stroke:#3D4747;stroke-miterlimit:10;} .st12{fill:#F8FFE0;stroke:#3D4747;stroke-miterlimit:10;} .st13{font-size:12px;} .st14{fill:#E5DEFF;stroke:#3D4747;stroke-width:3;stroke-miterlimit:10;} .st15{fill:#FADEE7;stroke:#3D4747;stroke-width:3;stroke-miterlimit:10;} .st16{fill:#FADEE7;stroke:#3D4747;stroke-miterlimit:10;} .st17{fill:#FFFFFF;stroke:#3D4747;stroke-width:4;stroke-miterlimit:10;} .st18{fill:none;stroke:#3D4747;stroke-miterlimit:10;stroke-dasharray:12.385,12.385;} .st19{fill:none;stroke:#3D4747;stroke-miterlimit:10;stroke-dasharray:12.2887,12.2887;} .st20{fill:none;stroke:#3D4747;stroke-miterlimit:10;stroke-dasharray:12,12;} .st21{fill:#8BC28D;stroke:#3D4747;stroke-miterlimit:10;}
  </style>
  <a href="https://schedulebuilder.berkeley.edu/explore/courses/SP/2012/509">
    <circle id="math1a" cx="506" cy="230" r="57" class="st0"/>
  </a>
  <circle cx="571" cy="383" r="65" class="st1"/>
  <a href="https://schedulebuilder.berkeley.edu/explore/courses/FL/2015/510">
    <circle id="math1b" cx="505.5" cy="374.5" r="57" class="st0"/>
  </a>
  <a href="https://schedulebuilder.berkeley.edu/explore/courses/FL/2014/515">
    <circle id="math53" cx="621.5" cy="526.5" r="57" class="st0"/>
  </a>
  <path d="M431.4 472.5L468 417" class="st2"/>
  <path d="M436.4 474l-8.9 4.5.6-10z" class="st3"/>
  <path d="M543.5 418.5l39.8 55.2" class="st2"/>
  <path d="M578.4 475.4l9.1 4.1-1-9.9z" class="st3"/>
  <text transform="matrix(1 0 0 1 480.4575 226.3828)">
    <tspan x="0" y="0" class="st4 st5">Math </tspan><tspan x="13.2" y="25.2" class="st4 st5">1A</tspan>
  </text>
  <text transform="matrix(1 0 0 1 480.4575 374.3828)">
    <tspan x="0" y="0" class="st4 st5">Math </tspan><tspan x="14" y="25.2" class="st4 st5">1B</tspan>
  </text>
  <text transform="matrix(1 0 0 1 597.4575 522.3828)">
    <tspan x="0" y="0" class="st4 st5">Math </tspan><tspan x="14.3" y="25.2" class="st4 st5">54</tspan>
  </text>
  <a href="https://schedulebuilder.berkeley.edu/explore/courses/FL/2015/514">
    <circle cx="396.5" cy="526.5" r="57" class="st0"/>
  </a>
  <text transform="matrix(1 0 0 1 371.4575 526.3828)">
    <tspan x="0" y="0" class="st4 st5">Math </tspan><tspan x="14.3" y="25.2" class="st4 st5">53</tspan>
  </text>
  <path d="M506 287v22.8" class="st6"/>
  <path d="M501 308.4l5 8.6 5-8.6z" class="st7"/>
  <a href="https://schedulebuilder.berkeley.edu/explore/courses/FL/2012/689">
    <circle id="stat134" cx="505.5" cy="707.5" r="57" class="st8"/>
  </a>
  <text transform="matrix(1 0 0 1 487.0752 697.3828)">
    <tspan x="0" y="0" class="st4 st5">Stat </tspan><tspan x="3.3" y="25.2" class="st4 st5">134</tspan>
  </text>
  <path d="M505.5 643.3V431.5" class="st2"/>
  <path d="M510.5 641.9l-5 8.6-5-8.6z" class="st3"/>
  <a xlink:href="https://schedulebuilder.berkeley.edu/explore/courses/FL/2013/690">
    <circle id="stat135" cx="729.5" cy="680.5" r="57" class="st8"/>
  </a>
  <text transform="matrix(1 0 0 1 711.0752 676.3828)">
    <tspan x="0" y="0" class="st4 st5">Stat </tspan><tspan x="3.3" y="25.2" class="st4 st5">135</tspan>
  </text>
  <path d="M441.4 706.8l-89.1-9" class="st2"/>
  <path d="M440.4 701.7l8.1 5.8-9.1 4.1z" class="st3"/>
  <a xlink:href="https://schedulebuilder.berkeley.edu/explore/courses/FL/2013/688">
    <circle id="stat133" cx="295.5" cy="683.5" r="57" class="st8"/>
  </a>
  <text transform="matrix(1 0 0 1 275.0752 680.3828)">
    <tspan x="0" y="0" class="st4 st5">Stat </tspan><tspan x="3.3" y="25.2" class="st4 st5">133</tspan>
  </text>
  <path d="M563.5 710.5l102.9-12.2" class="st2"/>
  <path d="M665.5 703.5l8-6-9.2-3.9z" class="st3"/>
  <path d="M652.5 574.5l37.9 55.1" class="st2"/>
  <path d="M685.5 631.2l9 4.3-.8-9.9z" class="st3"/>
  <a xlink:href="https://schedulebuilder.berkeley.edu/explore/courses/SP/2016/3837">
    <circle id="stat152" cx="450.5" cy="1103.5" r="57" class="st9"/>
  </a>
  <text transform="matrix(1 0 0 1 432.0752 1099.3828)">
    <tspan x="0" y="0" class="st4 st5">Stat </tspan><tspan x="3.3" y="25.2" class="st4 st5">152</tspan>
  </text>
  <a xlink:href="https://schedulebuilder.berkeley.edu/explore/courses/FL/2014/3254">
    <circle id="stat155" cx="739.5" cy="1103.5" r="57" class="st10"/>
  </a>
  <text transform="matrix(1 0 0 1 720.0752 1096.3828)">
    <tspan x="0" y="0" class="st4 st5">Stat </tspan><tspan x="3.3" y="25.2" class="st4 st5">155</tspan>
  </text>
  <a>
    <path d="M173.5 1019.9c-.2 31.5-25.9 56.8-57.4 56.6-31.5-.2-56.8-25.9-56.6-57.4.2-31.5 25.9-56.8 57.4-56.6s56.8 25.9 56.6 57.4" class="st11"/>
  </a>
  <text transform="matrix(1 0 0 1 97.0752 1016.3828)">
    <tspan x="0" y="0" class="st4 st5">Stat </tspan><tspan x="3.3" y="25.2" class="st4 st5">150</tspan>
  </text>
  <a xlink:href="https://schedulebuilder.berkeley.edu/explore/courses/FL/2015/3253">
    <circle id="stat153" cx="339.5" cy="925.5" r="57" class="st9"/>
  </a>
  <text transform="matrix(1 0 0 1 325.0752 925.3828)">
    <tspan x="0" y="0" class="st4 st5">Stat </tspan><tspan x="3.3" y="25.2" class="st4 st5">153</tspan>
  </text>
  <a xlink:href="https://schedulebuilder.berkeley.edu/explore/courses/FL/2013/6802">
    <circle id="stat154" cx="853.5" cy="1008.5" r="57" class="st10"/>
  </a>
  <text transform="matrix(1 0 0 1 835.0752 1004.3828)">
    <tspan x="0" y="0" class="st4 st5">Stat </tspan><tspan x="3.3" y="25.2" class="st4 st5">154</tspan>
  </text>
  <a>
    <circle cx="78" cy="74" r="49.5" class="st0"/>
  </a>
  <a>
    <circle cx="219" cy="74" r="49.5" class="st8"/>
  </a>
  <a>
    <circle cx="361" cy="74" r="49.5" class="st10"/>
  </a>
  <a>
    <circle cx="504" cy="74" r="49.5" class="st12"/>
  </a>
  <text transform="matrix(1 0 0 1 474.2441 139.936)" class="st4 st13">
    Data Science
  </text>
  <text transform="matrix(1 0 0 1 315.7402 140.4253)" class="st4 st13">
    Machine Learning
  </text>
  <text transform="matrix(1 0 0 1 45.2109 140.7236)">
    <tspan x="0" y="0" class="st4 st13">Prerequisites</tspan><tspan x="7.5" y="14.4" class="st4 st13">(required)</tspan>
  </text>
  <text transform="matrix(1 0 0 1 181.4473 140.2339)">
    <tspan x="0" y="0" class="st4 st13">Core Courses </tspan><tspan x="9.3" y="14.4" class="st4 st13">(required)</tspan>
  </text>
  <a xlink:href="https://schedulebuilder.berkeley.edu/explore/courses/FL/2014/3252">
    <circle id="stat151A" cx="731.5" cy="848.5" r="57" class="st14"/>
  </a>
  <text transform="matrix(1 4.420000e-03 -4.420000e-03 1 710.1248 841.2712)">
    <tspan x="0" y="0" class="st4 st5">Stat </tspan><tspan x="-3.2" y="25.2" class="st4 st5">151A</tspan>
  </text>
  <a xlink:href="https://schedulebuilder.berkeley.edu/explore/courses/SP/2016/3255">
    <circle id="stat157" cx="915.5" cy="803.5" r="57" class="st15"/>
  </a>
  <text transform="matrix(1 0 0 1 895.0752 798.3828)">
    <tspan x="0" y="0" class="st4 st5">Stat </tspan><tspan x="3.3" y="25.2" class="st4 st5">157</tspan>
  </text>
  <a>
    <circle cx="648" cy="74" r="49.5" class="st11"/>
  </a>
  <text transform="matrix(1 0 0 1 762.917 140.3193)" class="st4 st13">
    Exploration
  </text>
  <a xlink:href="https://schedulebuilder.berkeley.edu/explore/courses/FL/2013/6803">
    <circle id="stat158" cx="201.5" cy="841.5" r="57" class="st9"/>
  </a>
  <text transform="matrix(1 0 0 1 182.0752 841.3828)">
    <tspan x="0" y="0" class="st4 st5">Stat </tspan><tspan x="3.3" y="25.2" class="st4 st5">158</tspan>
  </text>
  <a xlink:href="https://schedulebuilder.berkeley.edu/explore/courses/SP/2015/4583">
    <circle cx="792" cy="74" r="49.5" class="st16"/>
  </a>
  <a xlink:href="https://schedulebuilder.berkeley.edu/explore/courses/SP/2015/4583">
    <circle id="stat150" cx="933" cy="74" r="49.5" class="st17"/>
  </a>
  <a xlink:href="https://ninjacourses.berkeley.edu/explore/courses/FL/2015/7907">
    <circle id="stat159" cx="582.5" cy="992.5" r="57" class="st9"/>
  </a>
  <text transform="matrix(1 0 0 1 563.0752 989.3828)">
    <tspan x="0" y="0" class="st4 st5">Stat </tspan><tspan x="3.3" y="25.2" class="st4 st5">159</tspan>
  </text>
  <text transform="matrix(1 0 0 1 607.4658 140.6597)" class="st4 st13">
    Probability Theory
  </text>
  <text transform="matrix(1 0 0 1 904.7617 140.2339)">
    <tspan x="0" y="0" class="st4 st13">Lab Course</tspan><tspan x="-9.3" y="14.4" class="st4 st13">(pick at least 1)</tspan>
  </text>
  <path d="M730 737l-1 46M340 720l332 120" class="st1"/>
  <path d="M728.6 784.3l.9-47.8" class="st6"/>
  <path d="M733.6 783l-5.1 8.5-4.8-8.7z" class="st7"/>
  <path d="M764.5 725.5l70.8 221.2" class="st6"/>
  <path d="M830.1 946.8l7.4 6.7 2.1-9.7z" class="st7"/>
  <path d="M557.5 730.5l294 71.3" class="st6"/>
  <path d="M848.9 806.3l9.6-2.8-7.2-6.9z" class="st7"/>
  <path d="M340.5 719.5l5.7 2" class="st6"/>
  <path d="M357.9 725.5l298.3 103.6" class="st18"/>
  <path d="M662.1 831.2l5.6 1.9" class="st6"/>
  <path d="M664.7 837.4l9.8-1.9-6.5-7.5z" class="st7"/>
  <path d="M327 731l136 117M506 765v57" class="st1"/>
  <path d="M694 725l-5.3 2.8" class="st6"/>
  <path d="M677.9 733.6L401.5 881.4" class="st19"/>
  <path d="M396.1 884.3l-5.3 2.8" class="st6"/>
  <path d="M389.8 882l-5.3 8.5 10 .3z" class="st7"/>
  <g>
    <path d="M313.5 737.5l24.6 124" class="st20"/>
    <path d="M332.9 861l6.6 7.5 3.2-9.4z" class="st7"/>
  </g>
  <g>
    <path d="M462.5 745.5l-89.8 125.2" class="st6"/>
    <path d="M369.5 866.6l-1 9.9 9.1-4.1z" class="st7"/>
  </g>
  <g>
    <path d="M520.5 762.5l54.7 161.2" class="st6"/>
    <path d="M570 923.9l7.5 6.6 1.9-9.8z" class="st7"/>
  </g>
  <g>
    <path d="M326.5 730.5l207 215.8" class="st6"/>
    <path d="M528.9 948.7l9.6 2.8-2.4-9.7z" class="st7"/>
  </g>
  <g>
    <path d="M693.5 724.5l-69.8 214.2" class="st6"/>
    <path d="M619.4 935.7l2.1 9.8 7.4-6.7z" class="st7"/>
  </g>
  <g>
    <path d="M454.5 732.5l-198.3 75.4" class="st6"/>
    <path d="M255.8 802.8l-6.3 7.7 9.8 1.6z" class="st7"/>
  </g>
  <g>
    <path d="M267.5 732.5l-33.1 51" class="st20"/>
    <path d="M231 779.5l-.5 10 8.9-4.5z" class="st7"/>
  </g>
  <g>
    <path d="M694.5 724.5l-429 108.2" class="st20"/>
    <path d="M265.7 827.6l-7.2 6.9 9.6 2.7z" class="st7"/>
  </g>
  <g>
    <path d="M494.5 764.5l-42.9 274.9" class="st6"/>
    <path d="M446.9 1037.2l3.6 9.3 6.3-7.8z" class="st7"/>
  </g>
  <g>
    <path d="M349.5 702.5l85.2 337" class="st20"/>
    <path d="M429.5 1039.4l7 7.1 2.7-9.6z" class="st7"/>
  </g>
  <g>
    <path d="M711.5 734.5l-240.6 308.3" class="st20"/>
    <path d="M467.9 1038.6l-1.4 9.9 9.2-3.7z" class="st7"/>
  </g>
  <g>
    <path d="M786.5 680.5l80 80.9" class="st6"/>
    <path d="M861.9 763.9l9.6 2.6-2.5-9.6z" class="st7"/>
  </g>
  <g>
    <path d="M553.5 737.5L725 1040.3" class="st6"/>
    <path d="M719.9 1041.4l8.6 5.1.1-10z" class="st7"/>
  </g>
  <g>
    <path d="M459.5 740.5L167.1 978" class="st6"/>
    <path d="M165.1 973.2l-3.6 9.3 9.8-1.6z" class="st7"/>
  </g>
  <a xlink:href="http://statistics.berkeley.edu/programs/undergrad/approved-cluster-courses">
    <path id="appliedcluster" d="M315.5 1092.9c-.2 31.5-25.9 56.8-57.4 56.6-31.5-.2-56.8-25.9-56.6-57.4.2-31.5 25.9-56.8 57.4-56.6 31.5.2 56.8 25.9 56.6 57.4" class="st21"/>
  </a>
  <text transform="matrix(1 0 0 1 216.3853 1076.3828)">
    <tspan x="0" y="0" class="st4 st5">3 Applied</tspan><tspan x="9.2" y="25.2" class="st4 st5">Cluster </tspan><tspan x="7.5" y="50.4" class="st4 st5">Courses</tspan>
  </text>
</svg>
